<svg enable-background="new 0 0 996.1 723.073" height="723.07" viewBox="0 0 996.1 723.073" width="996.1" xmlns="http://www.w3.org/2000/svg" xmlns:xlink="http://www.w3.org/1999/xlink"><defs><path id="a" d="m897.654 192.703c-5.74 21.814-12.013 32.081-18.822 30.803-10.215-1.918-17.667-10.03-22.147-10.872-3.269-.614-3.306 3.612-1.709 7.05 1.316 2.836 9.567 6.881 8.839 10.758s-7.041-.413-7.472 1.888c-.715 3.804-3.267 10.729 3.338 11.97 6.682 1.253 26.299 2.416 31.444-6.886 3.318-6.002 7.178-19.008 11.578-39.017.414.028.83.081 1.248.159 5.725 1.075 9.495 6.588 8.421 12.312-.546 2.907-2.234 5.31-4.515 6.83 1.761 3.836 3.787 7.877 6.182 12.105 12.876-4.771 25.279-23.484 17.63-45.132-1.332-10.152-7.452-16.59-15.367-20.531-6.241-4.104-13.214-5.743-19.468-5.159-11.821-1.187-22.877.412-26.215 1.965-2.067 11.015-.547 14.683 17.736 17.818 4.036 3.207 6.714 7.926 9.299 13.939z"/><filter id="b"><feGaussianBlur stdDeviation="4"/></filter><clipPath id="c"><use xlink:href="#a"/></clipPath><clipPath id="d"><use xlink:href="#f"/></clipPath><clipPath id="e"><path d="m425.23 542.22h349v102h-349z"/></clipPath><path id="f" d="m789.27 109.84h239.08v182.82h-239.08z" transform="matrix(.9828 .1845 -.1845 .9828 52.728 -164.21)"/></defs><path d="m37.23 566.87c0 15.409 12.458 28.348 27.866 28.348h459.5c15.409 0 27.631-12.938 27.631-28.348v-334.65h-515v334.65z" fill="#e6f1f4"/><path d="m524.6 172.22h-459.5c-15.409 0-27.866 12.042-27.866 27.45v33.55h515v-33.55c-.001-15.408-12.222-27.45-27.631-27.45z" fill="#cad5d8"/><path d="m75.148 202.82c0 5.199-4.212 9.421-9.424 9.421-5.202 0-9.424-4.222-9.424-9.421 0-5.211 4.222-9.425 9.424-9.425 5.212.001 9.424 4.214 9.424 9.425z" fill="#ff5a5f"/><path d="m106.56 202.82c0 5.199-4.213 9.421-9.423 9.421-5.203 0-9.415-4.222-9.415-9.421 0-5.211 4.212-9.425 9.415-9.425 5.209.001 9.423 4.214 9.423 9.425z" fill="#f3b10c"/><path d="m137.97 202.82c0 5.199-4.219 9.421-9.421 9.421-5.211 0-9.424-4.222-9.424-9.421 0-5.211 4.213-9.425 9.424-9.425 5.201.001 9.421 4.214 9.421 9.425z" fill="#7cb342"/><path d="m37.23 232.22h515v165h-515z" fill="#c9e0e2"/><g fill="#e6f1f4"><path d="m130.23 267.22h-63c-2.761 0-5-2.239-5-5s2.239-5 5-5h63c2.761 0 5 2.239 5 5s-2.238 5-5 5z"/><path d="m314.23 267.22h-42c-2.761 0-5-2.239-5-5s2.239-5 5-5h42c2.761 0 5 2.239 5 5s-2.238 5-5 5z"/><path d="m384.23 267.22h-43c-2.761 0-5-2.239-5-5s2.239-5 5-5h43c2.761 0 5 2.239 5 5s-2.238 5-5 5z"/><path d="m452.23 267.22h-42c-2.761 0-5-2.239-5-5s2.239-5 5-5h42c2.762 0 5 2.239 5 5s-2.238 5-5 5z"/><path d="m521.23 267.22h-42c-2.762 0-5-2.239-5-5s2.238-5 5-5h42c2.762 0 5 2.239 5 5s-2.238 5-5 5z"/><path d="m362.23 324.22h-136c-2.761 0-5-2.239-5-5s2.239-5 5-5h136c2.761 0 5 2.239 5 5s-2.238 5-5 5z"/><path d="m396.23 343.22h-204c-2.761 0-5-2.239-5-5s2.239-5 5-5h204c2.761 0 5 2.239 5 5s-2.238 5-5 5z"/><path d="m362.23 362.22h-136c-2.761 0-5-2.238-5-5s2.239-5 5-5h136c2.761 0 5 2.238 5 5s-2.238 5-5 5z"/></g><g fill="#fff" opacity=".5"><path d="m37.23 566.87c0 15.409 12.458 28.348 27.866 28.348h459.5c15.409 0 27.631-12.938 27.631-28.348v-334.65h-515v334.65z"/><path d="m524.6 172.22h-459.5c-15.409 0-27.866 12.042-27.866 27.45v33.55h515v-33.55c-.001-15.408-12.222-27.45-27.631-27.45z"/><path d="m75.148 202.82c0 5.199-4.212 9.421-9.424 9.421-5.202 0-9.424-4.222-9.424-9.421 0-5.211 4.222-9.425 9.424-9.425 5.212.001 9.424 4.214 9.424 9.425z"/><path d="m106.56 202.82c0 5.199-4.213 9.421-9.423 9.421-5.203 0-9.415-4.222-9.415-9.421 0-5.211 4.212-9.425 9.415-9.425 5.209.001 9.423 4.214 9.423 9.425z"/><path d="m137.97 202.82c0 5.199-4.219 9.421-9.421 9.421-5.211 0-9.424-4.222-9.424-9.421 0-5.211 4.213-9.425 9.424-9.425 5.201.001 9.421 4.214 9.421 9.425z"/><path d="m37.23 232.22h515v165h-515z"/><path d="m130.23 267.22h-63c-2.761 0-5-2.239-5-5s2.239-5 5-5h63c2.761 0 5 2.239 5 5s-2.238 5-5 5z"/><path d="m314.23 267.22h-42c-2.761 0-5-2.239-5-5s2.239-5 5-5h42c2.761 0 5 2.239 5 5s-2.238 5-5 5z"/><path d="m384.23 267.22h-43c-2.761 0-5-2.239-5-5s2.239-5 5-5h43c2.761 0 5 2.239 5 5s-2.238 5-5 5z"/><path d="m452.23 267.22h-42c-2.761 0-5-2.239-5-5s2.239-5 5-5h42c2.762 0 5 2.239 5 5s-2.238 5-5 5z"/><path d="m521.23 267.22h-42c-2.762 0-5-2.239-5-5s2.238-5 5-5h42c2.762 0 5 2.239 5 5s-2.238 5-5 5z"/><path d="m362.23 324.22h-136c-2.761 0-5-2.239-5-5s2.239-5 5-5h136c2.761 0 5 2.239 5 5s-2.238 5-5 5z"/><path d="m396.23 343.22h-204c-2.761 0-5-2.239-5-5s2.239-5 5-5h204c2.761 0 5 2.239 5 5s-2.238 5-5 5z"/><path d="m362.23 362.22h-136c-2.761 0-5-2.238-5-5s2.239-5 5-5h136c2.761 0 5 2.238 5 5s-2.238 5-5 5z"/></g><g filter="url(#b)" opacity=".4"><path d="m754.23 28.215h-321c-7.732 0-14 6.268-14 14v209.65l-10.88 12.397 10.88 12.398v360.56c0 7.732 6.268 14 14 14h321c7.732 0 14-6.268 14-14v-595c0-7.731-6.267-13.999-14-13.999z" fill="#455a64"/></g><path d="m760.23 21.215h-321c-7.732 0-14 6.268-14 14v209.65l-10.88 12.397 10.88 12.398v360.56c0 7.732 6.268 14 14 14h321c7.732 0 14-6.268 14-14v-595c0-7.731-6.267-13.999-14-13.999z" fill="#d5dee0"/><path d="m760.23 21.215h-321c-7.732 0-14 6.268-14 14v53h349v-53c0-7.732-6.267-14-14-14z" fill="#74ebc6"/><g fill="#fff"><path d="m448.989 48.007h2.997c.31 0 .568.073.775.219.208.146.348.343.418.59l3.263 11.472c.08.283.152.59.219.921.066.332.13.683.193 1.055.07-.372.147-.723.231-1.055.084-.331.174-.639.272-.921l3.766-11.472c.071-.203.21-.389.418-.557s.462-.252.763-.252h1.047c.31 0 .566.073.769.219.204.146.346.343.424.59l3.741 11.472c.194.565.362 1.193.504 1.883.062-.345.126-.677.192-.995.067-.318.135-.614.206-.889l3.263-11.472c.062-.221.199-.412.412-.57.212-.16.468-.239.769-.239h2.799l-5.955 19.178h-3.223l-4.191-13.103c-.053-.169-.108-.35-.166-.545-.058-.194-.113-.402-.166-.623-.053.221-.108.429-.166.623-.058.195-.113.376-.165.545l-4.231 13.103h-3.223z"/><path d="m478.34 67.185v-19.709h3.276v7.573c.531-.504 1.113-.911 1.75-1.22.636-.31 1.383-.464 2.242-.464.743 0 1.401.126 1.975.377.575.252 1.056.606 1.44 1.062s.676.999.875 1.631.298 1.329.298 2.089v8.66h-3.276v-8.66c0-.832-.192-1.475-.576-1.93-.385-.455-.961-.683-1.73-.683-.566 0-1.097.128-1.592.385-.495.256-.963.606-1.405 1.048v9.841z"/><path d="m504.082 67.185h-1.473c-.309 0-.552-.046-.729-.139s-.309-.281-.397-.564l-.292-.968c-.344.31-.683.582-1.014.816-.333.234-.676.431-1.028.59-.354.159-.729.279-1.127.357-.397.08-.841.12-1.326.12-.575 0-1.106-.078-1.592-.233-.487-.155-.904-.388-1.253-.699-.35-.31-.622-.696-.816-1.157-.194-.462-.291-.998-.291-1.611 0-.515.135-1.022.404-1.523.269-.502.717-.954 1.346-1.358.628-.403 1.463-.738 2.506-1.004 1.044-.266 2.339-.399 3.886-.399v-.802c0-.917-.192-1.597-.577-2.039-.384-.44-.944-.661-1.678-.661-.529 0-.973.062-1.325.186-.354.124-.662.263-.923.418-.26.154-.502.293-.722.417-.222.125-.464.187-.729.187-.221 0-.412-.058-.57-.173-.16-.114-.287-.256-.384-.424l-.598-1.048c1.565-1.433 3.454-2.149 5.663-2.149.797 0 1.507.131 2.129.391.624.261 1.151.624 1.585 1.088s.763 1.02.988 1.665c.226.646.338 1.353.338 2.122v8.594zm-6.365-2.043c.335 0 .646-.03.927-.092.284-.061.552-.152.803-.274.253-.122.496-.271.73-.45.234-.178.471-.39.709-.633v-2.278c-.955 0-1.753.06-2.394.18-.642.121-1.155.274-1.546.461-.388.187-.664.406-.828.655-.163.25-.245.521-.245.814 0 .58.17.993.51 1.243.342.25.785.374 1.334.374z"/><path d="m511.775 67.397c-1.176 0-2.083-.334-2.719-1.001-.638-.667-.956-1.589-.956-2.766v-7.599h-1.379c-.177 0-.33-.058-.457-.172-.129-.115-.192-.288-.192-.518v-1.3l2.188-.358.688-3.714c.036-.176.118-.313.245-.411.13-.097.291-.146.485-.146h1.697v4.284h3.581v2.334h-3.581v7.375c0 .424.106.755.318.994.211.239.495.358.849.358.203 0 .373-.024.511-.073.137-.049.256-.1.358-.152.101-.053.192-.104.271-.153.08-.049.159-.073.238-.073.098 0 .178.024.239.073.062.049.129.122.199.219l.981 1.591c-.478.398-1.025.698-1.645.902-.615.204-1.256.306-1.919.306z"/><path d="m520.409 48.007v3.82l-.306 2.068c-.062.39-.175.688-.338.896-.165.208-.432.312-.803.312-.318 0-.569-.104-.756-.312-.186-.208-.305-.506-.358-.896l-.291-2.068v-3.82z"/><path d="m531.96 56.229c-.089.142-.181.241-.278.298-.098.058-.222.086-.371.086-.16 0-.33-.044-.511-.132-.182-.089-.391-.188-.631-.299-.237-.11-.509-.21-.815-.298-.306-.089-.665-.134-1.08-.134-.646 0-1.155.138-1.525.412-.371.274-.558.632-.558 1.074 0 .292.095.537.284.736.191.199.442.374.758.524.312.15.67.285 1.066.405.398.119.805.25 1.222.391.414.141.822.302 1.22.484.396.182.753.411 1.066.689.314.279.566.613.757 1.001.19.389.285.858.285 1.406 0 .654-.119 1.258-.358 1.81-.238.552-.588 1.03-1.048 1.432s-1.028.716-1.704.941c-.676.226-1.452.339-2.328.339-.469 0-.926-.042-1.371-.126-.447-.083-.876-.201-1.287-.351s-.792-.327-1.141-.531c-.35-.203-.657-.424-.923-.663l.757-1.247c.098-.15.212-.265.345-.345.133-.079.301-.119.505-.119.202 0 .395.057.576.172s.391.239.63.372c.238.133.521.257.843.372s.731.172 1.227.172c.389 0 .723-.047 1-.14.28-.093.51-.214.691-.364.18-.151.313-.325.398-.524.082-.199.124-.404.124-.617 0-.318-.094-.579-.285-.782-.189-.204-.441-.38-.755-.531-.314-.15-.672-.285-1.074-.405-.402-.119-.812-.249-1.234-.391-.419-.142-.83-.307-1.232-.498-.402-.189-.762-.431-1.075-.722-.313-.292-.565-.65-.756-1.074-.189-.425-.285-.938-.285-1.539 0-.557.111-1.088.332-1.592.222-.504.546-.944.976-1.32.428-.375.962-.676 1.604-.902.641-.225 1.381-.337 2.222-.337.938 0 1.791.154 2.561.464.769.309 1.409.716 1.922 1.22z"/><path d="m540.596 67.185v-13.608h2.002c.424 0 .703.199.836.597l.225 1.074c.273-.283.562-.54.869-.769.305-.23.627-.429.967-.597.341-.168.707-.296 1.095-.385.39-.088.813-.132 1.274-.132.742 0 1.4.126 1.976.377.574.252 1.054.606 1.438 1.062s.677.999.875 1.631c.2.632.299 1.329.299 2.089v8.66h-3.276v-8.66c0-.832-.191-1.475-.577-1.93-.384-.455-.96-.683-1.729-.683-.567 0-1.097.128-1.592.385-.495.256-.965.606-1.407 1.048v9.841z"/><path d="m561.297 53.365c.857 0 1.646.137 2.368.411.721.274 1.341.674 1.863 1.2.521.526.929 1.172 1.22 1.937s.438 1.638.438 2.62c0 .247-.011.453-.033.617-.022.163-.062.292-.12.385-.058.092-.134.159-.231.199-.098.04-.223.059-.372.059h-8.408c.097 1.398.473 2.423 1.128 3.077.654.655 1.52.981 2.599.981.531 0 .988-.062 1.373-.186.385-.123.72-.26 1.008-.411.287-.15.539-.287.756-.411s.428-.186.63-.186c.133 0 .247.027.345.08.099.054.182.128.253.225l.954 1.194c-.362.424-.769.78-1.22 1.068-.451.287-.923.517-1.412.689-.491.173-.991.294-1.499.364-.509.071-1.002.107-1.479.107-.946 0-1.825-.157-2.639-.471-.813-.313-1.522-.778-2.122-1.393-.602-.615-1.075-1.375-1.419-2.281-.346-.906-.517-1.956-.517-3.149 0-.929.149-1.802.45-2.62.301-.817.731-1.53 1.293-2.135.562-.606 1.246-1.085 2.056-1.439.807-.354 1.72-.531 2.737-.531zm.067 2.347c-.956 0-1.703.27-2.241.809-.541.54-.886 1.304-1.036 2.294h6.154c0-.425-.058-.825-.172-1.2-.115-.376-.293-.705-.53-.988-.238-.283-.54-.506-.902-.67-.363-.163-.787-.245-1.273-.245z"/><path d="m568.193 53.577h2.6c.247 0 .455.058.622.172.168.116.274.261.32.438l1.949 7.269c.105.398.19.787.258 1.167.067.381.131.761.192 1.142.097-.38.201-.761.312-1.142.111-.379.227-.769.351-1.167l2.254-7.295c.053-.176.159-.322.32-.438.157-.115.345-.172.556-.172h1.446c.238 0 .438.058.597.172.159.115.265.261.317.438l2.229 7.427c.115.381.219.75.312 1.108s.184.718.271 1.081c.062-.38.13-.761.206-1.141.074-.38.17-.773.284-1.18l2.016-7.269c.044-.176.15-.322.319-.438.168-.114.363-.172.583-.172h2.48l-4.311 13.607h-2.64c-.282 0-.486-.194-.609-.584l-2.454-7.864c-.079-.256-.151-.515-.219-.776-.066-.26-.121-.52-.165-.775-.055.265-.11.529-.173.789-.062.261-.134.524-.212.79l-2.48 7.838c-.125.39-.362.584-.716.584h-2.506z"/><path d="m734.876 65.65c-.564 0-1.129-.209-1.567-.631-.9-.866-.929-2.298-.062-3.198l13.918-14.476c.864-.901 2.299-.929 3.197-.063.9.866.928 2.298.062 3.198l-13.918 14.476c-.444.461-1.036.694-1.63.694z"/><path d="m748.236 65.65c-.594 0-1.187-.232-1.63-.694l-13.919-14.476c-.865-.9-.838-2.333.062-3.198.898-.865 2.333-.838 3.197.063l13.919 14.476c.866.9.838 2.333-.062 3.198-.438.421-1.002.631-1.567.631z"/></g><g filter="url(#b)" opacity=".3"><path d="m749.23 531.3c0 3.818-3.096 6.913-6.914 6.913h-296.17c-3.818 0-6.914-3.095-6.914-6.913v-293.17c0-3.818 3.096-6.913 6.914-6.913h296.17c3.818 0 6.914 3.095 6.914 6.913z" fill="#455a64"/></g><path d="m759.23 521.3c0 3.818-3.096 6.913-6.914 6.913h-296.17c-3.818 0-6.914-3.095-6.914-6.913v-293.17c0-3.818 3.096-6.913 6.914-6.913h296.17c3.818 0 6.914 3.095 6.914 6.913z" fill="#fff"/><path d="m506.23 256.22h-28c-5.523 0-10-4.477-10-10s4.477-10 10-10h28c5.522 0 10 4.477 10 10s-4.477 10-10 10z" fill="#ffae1b"/><path d="m738.23 253.22h-209c-2.762 0-5-2.239-5-5s2.238-5 5-5h209c2.762 0 5 2.239 5 5s-2.238 5-5 5z" fill="#4b63af"/><path d="m738.23 436.22h-267c-1.381 0-2.5-1.119-2.5-2.5s1.119-2.5 2.5-2.5h267c1.381 0 2.5 1.119 2.5 2.5s-1.119 2.5-2.5 2.5z" fill="#dfebef"/><path d="m738.23 452.22h-267c-1.381 0-2.5-1.119-2.5-2.5s1.119-2.5 2.5-2.5h267c1.381 0 2.5 1.119 2.5 2.5s-1.119 2.5-2.5 2.5z" fill="#dfebef"/><path d="m738.23 470.22h-267c-1.381 0-2.5-1.119-2.5-2.5s1.119-2.5 2.5-2.5h267c1.381 0 2.5 1.119 2.5 2.5s-1.119 2.5-2.5 2.5z" fill="#dfebef"/><path d="m738.23 487.22h-267c-1.381 0-2.5-1.119-2.5-2.5s1.119-2.5 2.5-2.5h267c1.381 0 2.5 1.119 2.5 2.5s-1.119 2.5-2.5 2.5z" fill="#dfebef"/><path d="m738.23 511.22h-64c-2.762 0-5-2.238-5-5s2.238-5 5-5h64c2.762 0 5 2.238 5 5s-2.238 5-5 5z" fill="#74ebc6"/><path d="m471.23 270.22h267v147h-267z" fill="#c9e0e2"/><path d="m612.107 339.572c0-.809-.655-1.465-1.465-1.465h-55.162c-.809 0-1.464.656-1.464 1.465v30.754c0 .81.655 1.465 1.464 1.465h55.162c.81 0 1.465-.655 1.465-1.465z" fill="#fff"/><path d="m674.49 320.56c.061-.161.098-.333.098-.515v-26.849c0-.809-.632-1.465-1.44-1.465h-136.2c-.809 0-1.488.656-1.488 1.465v26.849c0 .269.077.518.203.734.298 3.804 2.237 7.146 5.166 9.291v55.876h-3.881c-.81 0-1.488.656-1.488 1.465v7.322c0 .809.679 1.465 1.488 1.465h136.2c.81 0 1.44-.656 1.44-1.465v-7.322c0-.809-.631-1.465-1.44-1.465h-4.417v-55.475c3.415-2.153 5.506-5.768 5.758-9.911zm-12.744 9.081c-4.847 0-8.88-3.517-9.704-8.131h19.407c-.823 4.615-4.856 8.131-9.703 8.131zm-35.618-8.131c-.823 4.614-4.856 8.131-9.703 8.131s-8.88-3.517-9.704-8.131zm22.661 0c-.823 4.614-4.856 8.131-9.704 8.131-4.847 0-8.88-3.517-9.703-8.131zm22.87-2.929h-20.015v-23.919h20.015zm-22.943 0h-19.526v-23.919h19.526zm-22.456 0h-19.525v-23.919h19.525zm-22.455 0h-20.014v-23.919h20.014zm-.337 2.929c-.823 4.614-4.856 8.131-9.704 8.131s-8.88-3.517-9.703-8.131zm-22.607-2.929h-19.526v-23.919h19.526zm-.054 2.929c-.824 4.614-4.856 8.131-9.703 8.131-4.848 0-8.881-3.517-9.704-8.131zm-42.415-26.849h20.015v23.919h-20.015zm.346 26.849h19.407c-.823 4.614-4.856 8.131-9.703 8.131s-8.88-3.516-9.704-8.131zm132.92 71.76h-133.27v-4.394h133.27zm-20.015-20.015v12.691h-26.36v-44.91h26.36v13.668h-2.464v-9.251c0-.809-.633-1.465-1.441-1.465h-17.99c-.809 0-1.489.656-1.489 1.465v16.573c0 .809.681 1.465 1.489 1.465h13.597v8.299c0 .809.68 1.465 1.488 1.465zm-5.369-2.929v-12.691h5.369v12.691zm19.527 15.621h-11.228v-46.375c0-.809-.633-1.465-1.441-1.465h-29.289c-.809 0-1.488.656-1.488 1.465v46.375h-78.594v-54.259c1.464.567 3.025.882 4.669.882 4.914 0 9.193-2.786 11.336-6.861 2.143 4.075 6.419 6.861 11.333 6.861s9.189-2.786 11.332-6.861c2.143 4.075 6.417 6.861 11.331 6.861 4.915 0 9.188-2.786 11.331-6.861 2.143 4.075 6.416 6.861 11.331 6.861 4.914 0 9.188-2.786 11.33-6.861 2.143 4.075 6.416 6.861 11.33 6.861 4.915 0 9.188-2.786 11.331-6.861 2.143 4.075 6.403 6.861 11.318 6.861 1.426 0 2.603-.238 4.067-.671v54.048z" fill="#fff"/><path d="m483.794 246.212c0 .556-.096 1.073-.288 1.551-.192.479-.462.895-.81 1.248s-.768.63-1.258.831-1.035.301-1.633.301-1.143-.1-1.635-.301c-.493-.201-.914-.478-1.264-.831-.35-.354-.621-.77-.813-1.248-.191-.478-.288-.995-.288-1.551s.096-1.073.288-1.551.463-.893.813-1.245.771-.628 1.264-.828c.492-.201 1.038-.301 1.635-.301.598 0 1.143.101 1.633.303s.91.479 1.258.831.618.767.81 1.245c.192.479.288.995.288 1.546zm-1.826 0c0-.38-.049-.722-.148-1.026-.098-.304-.24-.562-.425-.773s-.411-.373-.678-.486c-.268-.112-.572-.168-.913-.168-.345 0-.651.056-.92.168-.269.113-.496.274-.681.486-.185.211-.326.469-.425.773s-.148.646-.148 1.026c0 .384.049.728.148 1.032s.24.562.425.773.412.372.681.483.576.166.92.166c.341 0 .646-.055.913-.166s.493-.272.678-.483.327-.469.425-.773c.099-.304.148-.648.148-1.032z" fill="#fff"/><path d="m489.6 242.37v1.372h-3.155v1.947h2.627v1.377h-2.627v2.992h-1.794v-7.688z" fill="#fff"/><path d="m495.48 242.37v1.372h-3.155v1.947h2.627v1.377h-2.627v2.992h-1.794v-7.688z" fill="#fff"/><path d="m501.35 242.37v1.372h-3.154v1.794h2.416v1.319h-2.416v1.831h3.154v1.372h-4.948v-7.688z" fill="#fff"/><path d="m504.15 247.215v2.844h-1.784v-7.688h2.501c.556 0 1.03.057 1.422.171.393.114.713.273.961.478s.428.445.541.723c.112.278.169.581.169.908 0 .25-.034.485-.101.707s-.166.426-.298.615c-.132.188-.294.356-.485.504-.192.147-.413.269-.663.364.12.06.231.134.336.222.104.088.194.195.271.322l1.636 2.675h-1.615c-.299 0-.514-.112-.644-.338l-1.276-2.232c-.057-.098-.122-.168-.198-.211-.075-.042-.182-.063-.319-.063h-.454zm0-1.229h.717c.243 0 .449-.031.62-.092s.311-.147.42-.256c.108-.109.188-.237.237-.383s.074-.303.074-.472c0-.338-.11-.602-.33-.792s-.561-.285-1.021-.285h-.717z" fill="#fff"/><g filter="url(#b)" opacity=".3"><path d="m721.14 290.88c-1.419 3.544-5.444 5.266-8.989 3.845l-274.92-110.17c-3.544-1.42-5.267-5.445-3.847-8.989l48.048-119.9c1.42-3.544 5.445-5.266 8.989-3.845l274.92 110.17c3.544 1.42 5.268 5.445 3.846 8.989z" fill="#455a64"/></g><path d="m731.14 284.88c-1.419 3.544-5.444 5.266-8.989 3.845l-274.92-110.17c-3.544-1.42-5.267-5.445-3.847-8.989l48.048-119.9c1.42-3.544 5.445-5.266 8.989-3.845l274.92 110.17c3.544 1.42 5.268 5.445 3.846 8.989z" fill="#fff"/><path d="m532.037 95.423c-1.238 0-2.497-.231-3.717-.72l-20.421-8.183c-5.127-2.054-7.617-7.875-5.562-13.002s7.878-7.615 13.002-5.562l20.421 8.183c5.127 2.054 7.617 7.875 5.562 13.002-1.565 3.906-5.319 6.282-9.285 6.282z" fill="#ff5a80"/><path d="m752.96 178.95c-.619 0-1.248-.116-1.857-.36l-199.57-79.972c-2.563-1.027-3.809-3.938-2.782-6.501s3.938-3.809 6.501-2.781l199.57 79.972c2.563 1.027 3.809 3.938 2.782 6.501-.783 1.953-2.66 3.141-4.643 3.141z" fill="#4b63af"/><path d="m496.38 96.447 247.84 99.315" fill="none" stroke="#dfebef" stroke-linecap="round" stroke-miterlimit="10" stroke-width="5"/><path d="m490.43 111.3 247.84 99.315" fill="none" stroke="#dfebef" stroke-linecap="round" stroke-miterlimit="10" stroke-width="5"/><path d="m483.73 128.01 247.84 99.315" fill="none" stroke="#dfebef" stroke-linecap="round" stroke-miterlimit="10" stroke-width="5"/><path d="m477.41 143.79 247.84 99.315" fill="none" stroke="#dfebef" stroke-linecap="round" stroke-miterlimit="10" stroke-width="5"/><path d="m718 266.2c-.619 0-1.248-.116-1.857-.36l-59.408-23.806c-2.563-1.027-3.809-3.938-2.782-6.501s3.939-3.81 6.501-2.781l59.408 23.806c2.563 1.027 3.809 3.938 2.782 6.501-.784 1.953-2.661 3.141-4.644 3.141z" fill="#74ebc6"/><path d="m513.649 74.387c.044.024.081.053.111.085s.057.07.078.114c.021.046.043.103.065.173l1.585 5.348c.04-.135.08-.265.124-.39.043-.124.086-.241.129-.35l1.434-3.579 1.384.555-2.71 6.763-.817-.327c-.12-.049-.215-.107-.284-.179-.067-.07-.121-.171-.158-.3l-1.575-5.308c-.037.122-.076.24-.115.355-.038.115-.078.223-.118.322l-1.453 3.624-1.383-.555 2.71-6.762.826.331c.068.029.124.055.167.08z" fill="#fff"/><path d="m524.026 78.534-.483 1.207-2.775-1.113-.633 1.578 2.126.853-.465 1.16-2.126-.853-.646 1.611 2.775 1.112-.483 1.206-4.354-1.744 2.71-6.763z" fill="#fff"/><path d="m524.407 78.687 1.317.527c.137.055.238.133.305.23.066.099.093.205.08.318l-.485 3.898c-.015.127-.033.262-.055.404-.021.143-.052.287-.094.436.089-.132.179-.256.268-.369s.173-.221.252-.322l2.51-3.088c.062-.076.152-.13.271-.162.119-.034.244-.024.374.027l.464.187c.137.054.236.13.301.226.063.096.092.203.083.321l-.327 3.962c-.009.123-.02.252-.031.39-.013.137-.032.28-.06.431.079-.126.156-.246.232-.359s.149-.218.221-.315l2.342-3.154c.061-.08.151-.136.271-.167.121-.03.246-.021.376.031l1.234.495-4.799 5.926-1.42-.569.408-4.701c.004-.072.011-.152.018-.24.008-.086.019-.177.032-.272-.057.078-.112.151-.166.219-.055.068-.105.131-.153.187l-2.97 3.675-1.421-.569z" fill="#fff"/><path d="m788.86 280.32-20.835-42.988c-15.631-11.8-22.23-18.48-19.798-20.033 3.65-2.332 7.201 2.307 9.934 1.12 2.728-1.187 2.044-9.474 1.056-17.314-1.002-7.838 2.732-5.677 4.616-3.85 5.356 7.845 9.992 17.685 13.901 29.526l35.672 42.876z" fill="#b28b67"/><path d="m796.94 236.07s-1.662-4.7-3.587-5.433c-1.921-.735-29.782 17.993-29.782 17.993s-2.477 2.384 1.883 7.748 19.488 117.06 145.92 83.646l-14.389-56.904c-.001 0-71.736 31.69-100.05-47.05z" fill="#f2a60f"/><path d="m758.37 216.92 9.747-24.325-12.633-3.004-3.75 18.125z" fill="#fff"/><path clip-rule="evenodd" d="m913.68 227.31c9.715-7.852 17.253-18.292 18.76-31.294 4.347-37.461-48.65-38.988-62.164-22.206-13.515 16.784-21.211 64.342-8.897 70.106 4.91 2.299 16.514 1.104 28.969-3.54l-16.349 48.364 41.467 7.784z" fill="#b28b67" fill-rule="evenodd"/><use clip-rule="evenodd" fill="#191847" fill-rule="evenodd" xlink:href="#a"/><g clip-path="url(#c)" fill="#191847"><use xlink:href="#f"/><path clip-path="url(#d)" d="m847.84 149.52h93.784v109.34h-93.784z" transform="matrix(.9828 .1845 -.1845 .9828 53.031 -161.56)"/></g><path d="m842.24 387.6-33.756 265.4h23.17l31.766-112.61 43.539-152.79z" fill="#1f28cf"/><path d="m842.11 387.6c21.307 75.338 35.453 118.29 40.036 128.86 4.584 10.565 26.557 56.082 65.919 136.55h24.001c-30.919-83.877-46.906-129.39-47.964-136.55s-4.49-50.107-5.5-128.86z" fill="#2b44ff"/><path d="m890.2 475.62v-2.402l-15.611 2.402h-45.635v-4.804c19.267-5.204 34.878-12.009 46.835-20.415h25.22l1.201 25.219z" fill="#191847" transform="translate(72 199)"/><path d="m634.89 475.62v-2.402l-15.611 2.402h-45.635v-4.804c19.267-5.204 34.879-12.009 46.836-20.415h25.219l1.201 25.219z" fill="#191847" transform="translate(188 199)"/><path clip-rule="evenodd" d="m768.22 319.5c-7.56-7.742-14.879-13.304-21.961-16.682-13.544-6.462-18.773-10.496-24.176-20.546-2.89-5.378-4.376-15.425-.287-17.892 2.763-1.668 14.852 11.075 20.342 13.245 5.489 2.172 2.629-12.208 5.391-10.287 3.897.757 6.314 6.708 7.25 17.854l18.11 14.492z" fill="#b28b67" fill-rule="evenodd"/><path clip-rule="evenodd" d="m844.4 317.74c-17.724.987-45.168-9.355-82.332-31.031-13.747 18.47-21.069 32.109-21.972 40.916 30.807 24.259 58.598 37.743 82.635 42.85-3.474 14.107-4.307 27.998-.803 41.501 7.202 27.76 82.173 17.555 104.99 26.698 23.951-45.154-1.043-70.098 4.761-100.8 6.356-33.619-10.938-75.632-14.929-76.389l-36.39-6.911c-6.881 25.289-22.36 36.787-35.961 63.162z" fill="#f3b10c" fill-rule="evenodd"/><path d="m822.73 370.48s57.712 16.973 71.217-23.849c0 0 .908 91.472-73.382 58.723 0 0-4.147-13.04 2.165-34.874z" fill="#f2a60f"/><path d="m313.56 330.55 11.335 1.688c28.496 47.487 23.111 118.93 60.393 169.98l-16.535 10.694c-81.204-38.331-75.674-125.82-55.193-182.37z" fill="#f24955"/><g filter="url(#b)" opacity=".3"><path d="m468 507.39c.688 3.983-1.985 7.772-5.969 8.461l-286.18 49.419c-3.983.687-7.773-1.985-8.461-5.969l-23.257-134.68c-.688-3.983 1.984-7.772 5.97-8.46l286.18-49.417c3.984-.689 7.773 1.984 8.46 5.968z" fill="#455a64"/></g><path d="m478 497.39c.688 3.983-1.985 7.772-5.969 8.461l-286.18 49.419c-3.983.687-7.773-1.985-8.461-5.969l-23.257-134.68c-.688-3.983 1.984-7.772 5.97-8.46l286.18-49.417c3.984-.689 7.773 1.984 8.46 5.968z" fill="#fff"/><path d="m263.68 422.997c-2.388 0-4.501-1.717-4.921-4.15-.47-2.721 1.355-5.308 4.077-5.777l171.951-29.692c2.723-.471 5.308 1.355 5.778 4.076s-1.355 5.308-4.077 5.777l-171.951 29.692c-.288.049-.575.074-.857.074z" fill="#4b63af"/><path d="m184.56 454.57 254.92-44.021" fill="none" stroke="#dfebef" stroke-linecap="round" stroke-miterlimit="10" stroke-width="5"/><path d="m187.46 471.4 254.92-44.021" fill="none" stroke="#dfebef" stroke-linecap="round" stroke-miterlimit="10" stroke-width="5"/><path d="m190.58 489.44 254.92-44.021" fill="none" stroke="#dfebef" stroke-linecap="round" stroke-miterlimit="10" stroke-width="5"/><path d="m193.69 507.48 254.92-44.021" fill="none" stroke="#dfebef" stroke-linecap="round" stroke-miterlimit="10" stroke-width="5"/><path d="m385.899 499.718c-2.388 0-4.501-1.717-4.921-4.15-.47-2.721 1.355-5.308 4.077-5.777l66.136-11.42c2.721-.472 5.308 1.355 5.778 4.076s-1.355 5.308-4.077 5.777l-66.136 11.42c-.288.05-.574.074-.857.074z" fill="#74ebc6"/><g transform="translate(0 194.76)"><path d="m241.49 229.53 59.854 151.49 40.144 128.07h15.851l-61.371-279.56z" fill="#dbc4b2"/><path d="m229.44 229.53c-.637 53.233-9.932 124.91-11.417 128.22-.99 2.212-35.167 30.345-102.53 84.396l10.918 11.684c79.482-46.343 121.06-72.604 124.74-78.786 5.518-9.272 23.479-94.59 37.9-145.52z" fill="#dbc4b2"/><path d="m255.308 129.654c-1.365 3.641-2.047 6.366-2.047 8.174 0 2.198.366 5.408 1.099 9.626 2.552.001 25.478.001 68.78.001 1.788-5.909.756-9.099-3.095-9.57-3.85-.471-7.049-.897-9.597-1.276l-31.968-14.251c-.615-.275-1.336.002-1.612.616-.003.011-.008.022-.013.032l-2.055 4.984c-3.564 1.665-6.462 2.496-8.691 2.496-1.811-.001-4.311-.731-7.502-2.195-1.225-.561-2.672-.024-3.234 1.201-.023.054-.045.108-.065.162z" fill="#e4e4e4" transform="matrix(.64279 .76604 -.76604 .64279 49.241 159.33)"/><path d="m118.072 295.64c-1.363 3.644-2.045 6.368-2.045 8.176 0 2.198.366 5.407 1.1 9.627h68.778c1.788-5.909.755-9.099-3.095-9.57-3.85-.472-7.05-.896-9.597-1.276l-31.968-14.251c-.615-.273-1.336.002-1.61.617-.005.011-.011.021-.014.032l-2.053 4.983c-3.566 1.663-6.464 2.495-8.692 2.495-1.81 0-4.311-.73-7.502-2.194-1.224-.562-2.673-.023-3.232 1.202-.026.053-.049.106-.07.159z" fill="#e4e4e4" transform="translate(216.92 207.54)"/><path d="m281.73 495.9 75.368-8.179-55.858-258.19h-67.503z" fill="#69a1ac"/><path d="m131.08 423.3 49.437 58.517c52.071-56.871 82.428-93.979 91.073-111.32 8.643-17.346 16.415-64.335 23.312-140.96h-75.998c-3.768 67.417-6.308 102.69-7.619 105.83-1.311 3.137-28.047 32.45-80.205 87.941z" fill="#89c5cc"/></g><path d="m248.21 262.76c-6.672-7.831-11.187-17.43-10.432-28.183 2.174-30.987 45.305-24.17 53.696-8.531 8.391 15.642 7.396 55.311-3.448 58.104-4.325 1.114-13.539-1.615-22.914-7.268l5.885 41.635h-34.75z" fill="#dbc4b2" transform="translate(54 31)"/><path d="m325.668 239.019c-4.58-.75-16.912-1.267-19.186-1.267-1.455 0-3.028.333-3.888-1.002-.705-1.091-.446-2.94-.658-4.208-.244-1.471-.591-2.926-.944-4.377-.998-4.128-2.507-8.055-4.619-11.741-3.966-6.916-9.772-12.334-17.107-15.486-8.097-3.483-17.26-4.278-25.971-3.572-9.319.755-17.759 3.832-26.558 6.728-8.385 2.761-17.168 3.845-25.94 2.498-8.836-1.357-15.514-6.147-22.968-10.692-7.63-4.656-16.349-7.699-25.37-6.999-8.421.654-16.184 4.131-23.147 8.774-6.514 4.346-11.89 9.575-14.925 16.932-3.264 7.917-3.261 16.605 2.111 23.6 7.778 10.14 22.227 12.763 34.246 12.503 6.952-.15 13.781-1.421 20.345-3.729 8.751-3.078 16.316-8.297 24.505-12.529 3.844-1.988 7.814-3.621 11.981-4.796 4.041-1.141 8.019-1.664 11.678.778 3.868 2.582 7.337 5.118 11.765 6.735 4.248 1.55 8.746 2.418 13.271 2.383 8.801-.069 17.481-2.812 26.034-4.649 6.973-1.497 14.433-2.992 21.542-1.551 2.969.6 7.3 1.842 8.373 4.924-18.034 3.269-25.117 25.57-20.032 41.941 2.744 8.838 19.236 19.167 25.647 14.521 4.062-2.944 1.596-6.807 0-9.356-3.055-4.884-4.1-11.159 1.555-14.559 4.878-2.933 10.008 4.031 10.107 4.022 1.34-.104 12.927-6.658 20.91-16.219 7.878.465 9.073-4.728 7.192-8.974-1.882-4.25-13.621-9.595-19.949-10.633z" fill="#191847"/><path d="m204.08 415.11 25.895 8.633c-33.014 46.416-50.68 70.997-52.996 73.741-5.212 6.169-2.702 19.003-2.021 25.683-9.707 1.002-4.192-12.726-16.501-11.27-11.234 1.327-21.348 7.103-30.321-3.548-1.104-1.308-1.562-5.023 2.93-6.33 11.188-3.256 27.949-9.885 30.915-12.904 4.04-4.122 18.073-28.791 42.099-74.005z" fill="#dbc4b2"/><path d="m222.43 449.99c43.021 14.154 74.669 24.564 94.938 31.234 4.338 1.428 5.582-5.106 5.995-8.474 4.765-38.858-10.551-87.479 6.533-139.41l-25.969-13.304c-34.637 28.979-57.225 71.25-81.497 129.95z" fill="#dde3e9"/><path d="m257.95 344.6c-3.602-2.45-5.874-6.153-6.818-11.107-4.067-21.353 2.819-30.109 14.59-29.857 11.772.251 19.095 10.122 36.136 15.729.928.305 1.758.643 2.49 1.013l8.414 3.31c-2.83 91.449-14.344 149.3-34.544 173.54l-74.719-24.583c-7.825 8.867-14.918 16.16-21.284 21.875l-20.361-6.698c18.469-62.589 50.499-110.33 96.096-143.22z" fill="#ff5a5f"/><path d="m233.85 435.19c-4.116 20.433-4.992 35.961-2.624 46.58l-27.729-9.124c9.125-10.345 19.244-22.827 30.353-37.456z" fill-opacity=".1"/><path d="m406.786 519.307s-10.754-17.676-16.114-10.181c-5.362 7.496.472 14.383 4.947 13.778 4.474-.605 13.508-.151 11.167-3.597z" fill="#dbc4b2"/><g clip-path="url(#e)"><g filter="url(#b)" opacity=".3"><path d="m439.23 654.22v-86.087c0-3.818 3.096-6.913 6.914-6.913h296.17c3.818 0 6.914 3.095 6.914 6.913v86.087z" fill="#455a64"/></g><path d="m449.23 644.22v-86.087c0-3.818 3.096-6.913 6.914-6.913h296.17c3.818 0 6.914 3.095 6.914 6.913v86.087z" fill="#fff"/><path d="m500.23 586.22h-22c-5.523 0-10-4.478-10-10s4.477-10 10-10h22c5.522 0 10 4.478 10 10s-4.477 10-10 10z" fill="#5fc2d6"/><path d="m738.23 583.22h-215c-2.762 0-5-2.238-5-5s2.238-5 5-5h215c2.762 0 5 2.238 5 5s-2.238 5-5 5z" fill="#4b63af"/><path d="m738.23 602.22h-267c-1.381 0-2.5-1.119-2.5-2.5s1.119-2.5 2.5-2.5h267c1.381 0 2.5 1.119 2.5 2.5s-1.119 2.5-2.5 2.5z" fill="#dfebef"/><path d="m738.23 618.22h-267c-1.381 0-2.5-1.119-2.5-2.5s1.119-2.5 2.5-2.5h267c1.381 0 2.5 1.119 2.5 2.5s-1.119 2.5-2.5 2.5z" fill="#dfebef"/><g fill="#fff"><path d="m475.983 580.001v-7.572h2.786c.523 0 .969.049 1.336.146s.667.233.899.41.401.392.507.645c.105.253.159.535.159.848 0 .17-.024.333-.073.491-.049.157-.125.306-.229.444s-.237.264-.4.377c-.163.112-.359.21-.587.293.499.121.868.318 1.107.59s.359.621.359 1.048c0 .322-.062.622-.188.898-.125.277-.307.52-.548.726s-.538.367-.891.483-.757.174-1.211.174h-3.026zm1.757-4.386h.915c.194 0 .369-.014.525-.041.156-.028.289-.076.397-.146.109-.069.192-.165.25-.286s.086-.273.086-.457c0-.181-.022-.33-.067-.45-.045-.119-.115-.216-.208-.288-.094-.073-.212-.125-.356-.156s-.314-.047-.512-.047h-1.029v1.871zm0 1.175v1.887h1.237c.232 0 .422-.029.569-.089.147-.059.262-.135.345-.229s.141-.199.172-.316c.031-.118.046-.237.046-.359 0-.138-.018-.263-.054-.374-.037-.11-.099-.204-.187-.28s-.206-.136-.351-.177c-.146-.042-.329-.062-.551-.062h-1.226z"/><path d="m484.56 578.6h2.807v1.403h-4.563v-7.572h1.757v6.169z"/><path d="m495.254 576.212c0 .548-.094 1.057-.283 1.528s-.455.881-.797 1.229c-.344.348-.757.621-1.24.818s-1.02.296-1.609.296-1.126-.099-1.611-.296-.9-.471-1.245-.818c-.345-.349-.612-.758-.801-1.229-.188-.472-.283-.98-.283-1.528 0-.547.095-1.057.283-1.527.189-.472.456-.88.801-1.227s.759-.619 1.245-.816c.485-.197 1.022-.296 1.611-.296s1.125.1 1.609.299.896.472 1.24.818c.342.347.607.756.797 1.227.189.472.283.978.283 1.522zm-1.799 0c0-.374-.048-.711-.145-1.011s-.236-.554-.418-.761c-.182-.208-.404-.367-.667-.479-.264-.111-.563-.166-.899-.166-.339 0-.642.055-.907.166s-.489.271-.67.479c-.182.207-.321.461-.418.761s-.146.637-.146 1.011c0 .378.048.717.146 1.017s.236.554.418.761c.182.208.405.367.67.476s.567.164.907.164c.336 0 .636-.055.899-.164.263-.108.486-.268.667-.476.182-.207.322-.461.418-.761.097-.3.145-.639.145-1.017z"/><path d="m499.661 578.733c.243 0 .458-.021.645-.062.188-.042.364-.098.53-.167v-1.148h-.748c-.111 0-.197-.029-.26-.088-.062-.06-.094-.134-.094-.224v-.967h2.692v3.196c-.194.142-.396.265-.605.366-.21.103-.434.187-.671.252-.237.066-.49.114-.759.146s-.557.047-.865.047c-.555 0-1.067-.098-1.538-.294-.472-.195-.88-.466-1.225-.811s-.614-.753-.811-1.227c-.195-.473-.293-.986-.293-1.541 0-.564.093-1.083.28-1.557.188-.473.455-.881.803-1.224.349-.343.77-.609 1.263-.8.494-.191 1.046-.286 1.655-.286.315 0 .612.025.89.078.276.052.532.123.767.213.233.09.447.197.642.322.193.125.367.26.52.405l-.51.774c-.048.072-.106.13-.174.171-.067.042-.141.062-.221.062-.104 0-.212-.034-.322-.104-.139-.083-.27-.155-.393-.216s-.248-.11-.377-.148c-.128-.038-.263-.065-.405-.083-.142-.017-.301-.025-.478-.025-.329 0-.626.058-.889.174-.264.116-.488.279-.674.491-.185.211-.328.465-.429.761-.101.297-.15.627-.15.99 0 .402.056.759.166 1.071.111.312.265.575.46.79.196.215.428.378.696.49.27.117.564.173.882.173z"/></g></g></svg>